<svg xmlns="http://www.w3.org/2000/svg" viewBox="0 0 256 256">
  <defs>
    <linearGradient id="goldGrad" x1="0%" y1="0%" x2="0%" y2="100%">
      <stop offset="0%" style="stop-color:#FFD700;stop-opacity:1" />
      <stop offset="100%" style="stop-color:#FFA500;stop-opacity:1" />
    </linearGradient>
    <linearGradient id="blueGrad" x1="0%" y1="0%" x2="0%" y2="100%">
      <stop offset="0%" style="stop-color:#4A90E2;stop-opacity:1" />
      <stop offset="100%" style="stop-color:#2E5C8A;stop-opacity:1" />
    </linearGradient>
  </defs>
  <ellipse cx="80" cy="200" rx="45" ry="12" fill="url(#goldGrad)"/>
  <rect x="35" y="170" width="90" height="30" fill="url(#goldGrad)"/>
  <ellipse cx="80" cy="170" rx="45" ry="12" fill="#FFE55C"/>
  <ellipse cx="100" cy="160" rx="45" ry="12" fill="url(#goldGrad)"/>
  <rect x="55" y="130" width="90" height="30" fill="url(#goldGrad)"/>
  <ellipse cx="100" cy="130" rx="45" ry="12" fill="#FFE55C"/>
  <ellipse cx="120" cy="120" rx="45" ry="12" fill="url(#goldGrad)"/>
  <rect x="75" y="90" width="90" height="30" fill="url(#goldGrad)"/>
  <ellipse cx="120" cy="90" rx="45" ry="12" fill="#FFE55C"/>
  <path d="M 180 140 L 180 80 L 160 100 L 180 100 L 180 80 L 200 100 Z" fill="url(#blueGrad)"/>
  <polygon points="180,50 160,80 200,80" fill="url(#blueGrad)"/>
  <rect x="170" y="80" width="20" height="60" fill="url(#blueGrad)"/>
</svg>